<svg width="1200" height="1200" viewBox="0 0 1200 1200" fill="none" xmlns="http://www.w3.org/2000/svg">
<g clip-path="url(#clip0_0_52)">
<mask id="mask0_0_52" style="mask-type:luminance" maskUnits="userSpaceOnUse" x="0" y="0" width="1200" height="1200">
<path d="M1200 600C1200 268.629 931.371 0 600 0C268.629 0 0 268.629 0 600C0 931.371 268.629 1200 600 1200C931.371 1200 1200 931.371 1200 600Z" fill="white"/>
</mask>
<g mask="url(#mask0_0_52)">
<path d="M0 600C0 268.63 268.63 0 600 0C931.37 0 1200 268.63 1200 600C1200 931.37 931.37 1200 600 1200C268.63 1200 0 931.37 0 600Z" fill="#001E61"/>
<path fill-rule="evenodd" clip-rule="evenodd" d="M785.452 575.964L794.416 530.702H717.268V468.872L663.112 477.352V662.034C663.112 725.882 687.262 744.882 753.108 744.882H781.936L790.904 700.018H757.004C727.008 700.018 717.262 692.35 717.262 658.396V575.964H785.452ZM413.368 447.446V645.876C413.368 719.428 446.092 750.138 517.394 750.138C591.42 750.138 624.148 720.236 624.148 646.276V627.286C624.148 557.778 593.754 523.828 527.524 523.828C506.482 523.828 483.494 528.27 467.908 540.796V438.556L413.368 447.446ZM519.34 568.276C556.742 568.276 569.994 583.636 569.994 629.298V646.276C569.994 690.724 556.742 706.088 518.56 706.088C480.38 706.088 467.124 690.724 467.124 645.87V622.838C467.124 582.018 480.38 568.276 519.34 568.276ZM916.362 523.828C845.06 523.828 812.332 554.942 812.332 626.068V636.98C812.332 704.466 840.776 737.198 907.784 737.198C929.216 737.198 950.648 733.166 965.84 720.63V728.722C965.84 766.71 949.87 779.226 912.462 779.226H890.068C877.266 779.462 871.45 781.82 863.734 794.938L863.692 794.918C799.45 900.374 687.916 964.798 566.368 964.798C372.43 964.798 214.656 801.156 214.656 599.998C214.656 398.844 372.43 235.202 566.368 235.202C702.592 235.202 826.518 317.028 884.498 444.366H900.658C841.568 308.012 710.572 220 566.368 220C364.354 220 200 390.468 200 599.998C200 809.532 364.354 980 566.368 980C685.174 980 794.814 920.918 863.166 822.87H915.58C984.544 822.87 1020 795.8 1020 726.696V622.434C1020 553.73 986.104 523.828 916.362 523.828ZM966.234 643.85C966.234 681.838 953.376 693.554 916.368 693.554C874.672 693.554 866.492 678.604 866.492 634.56V627.69C866.492 584.036 873.894 568.276 916.362 568.276C958.05 568.276 966.234 583.636 966.234 628.09V643.85Z" fill="white"/>
</g>
</g>
<defs>
<clipPath id="clip0_0_52">
<rect width="1200" height="1200" fill="white"/>
</clipPath>
</defs>
</svg>
