<svg width="1200" height="1200" viewBox="0 0 1200 1200" fill="none" xmlns="http://www.w3.org/2000/svg">
<g clip-path="url(#clip0_0_131)">
<path d="M600 1200C931.371 1200 1200 931.371 1200 600C1200 268.629 931.371 0 600 0C268.629 0 0 268.629 0 600C0 931.371 268.629 1200 600 1200Z" fill="#F4F4F4"/>
<path d="M469.364 822.728C592.725 822.728 692.728 722.725 692.728 599.364C692.728 476.004 592.725 376 469.364 376C346.003 376 246 476.004 246 599.364C246 722.725 346.003 822.728 469.364 822.728Z" fill="#F12309"/>
<path d="M750.636 822.728C873.996 822.728 974 722.725 974 599.364C974 476.004 873.996 376 750.636 376C627.275 376 527.272 476.004 527.272 599.364C527.272 722.725 627.275 822.728 750.636 822.728Z" fill="#FB9F01"/>
<path fill-rule="evenodd" clip-rule="evenodd" d="M610 425.822C660.472 466.776 692.728 529.302 692.728 599.362C692.728 669.422 660.472 731.95 610 772.902C559.528 731.95 527.272 669.422 527.272 599.362C527.272 529.302 559.528 466.776 610 425.822Z" fill="#FF6100"/>
<path opacity="0.01" d="M1000 220H220V1000H1000V220Z" fill="#FF0000"/>
</g>
<defs>
<clipPath id="clip0_0_131">
<rect width="1200" height="1200" fill="white"/>
</clipPath>
</defs>
</svg>
