<svg width="1200" height="1200" viewBox="0 0 1200 1200" fill="none" xmlns="http://www.w3.org/2000/svg">
<g clip-path="url(#clip0_0_803)">
<path d="M600 1200C931.371 1200 1200 931.371 1200 600C1200 268.629 931.371 0 600 0C268.629 0 0 268.629 0 600C0 931.371 268.629 1200 600 1200Z" fill="#414141"/>
<path d="M591.597 669.059H560.309V625.69H591.597C606.386 625.916 616.472 634.266 616.472 647.328C616.472 660.393 606.386 669.059 591.597 669.059ZM595.855 593.666H523.331V747H560.309V703.109H595.63C634.625 703.109 653.665 675.404 653.665 647.328C653.665 619.253 634.847 593.666 595.855 593.666Z" fill="white"/>
<path d="M945.642 687.244L875.366 593.666H837.67V747H875.366V653.196L945.642 747H983.337V593.666H945.642V687.244Z" fill="white"/>
<path d="M540.614 547.102V532.219H555.58C562.431 532.219 566.013 534.022 566.013 539.661C566.013 544.622 562.535 547.102 555.58 547.102H540.614ZM540.614 502.117H554.421C561.06 502.117 564.222 504.596 564.222 509.783C564.222 515.758 561.904 518.126 554.421 518.126H540.614V502.117ZM584.665 540.675C584.665 532.446 580.872 525.793 573.917 522.071C575.497 520.832 580.661 515.309 580.661 507.416C580.661 495.127 574.128 486.332 553.367 486.332H523.331V562.999H557.583C577.185 562.999 584.665 553.19 584.665 540.675Z" fill="white"/>
<path d="M733.77 516.097L772.901 562.999H791.668V486.332H772.901V533.121L733.77 486.332H715.001V562.999H733.77V516.097Z" fill="white"/>
<path d="M891.332 547.802L876.088 537.334C872.44 541.758 866.908 544.575 860.724 544.575C849.714 544.575 840.785 535.659 840.785 524.659C840.785 513.67 849.714 504.756 860.724 504.756C866.887 504.756 872.417 507.56 876.055 511.963L891.299 501.484C884.287 492.267 873.202 486.332 860.724 486.332C839.512 486.332 822.332 503.495 822.332 524.659C822.332 545.834 839.512 562.999 860.724 562.999C873.223 562.999 884.32 557.041 891.332 547.802Z" fill="white"/>
<path d="M952.664 504.747C963.656 504.747 972.571 513.673 972.571 524.665C972.571 535.656 963.656 544.57 952.664 544.57C941.672 544.57 932.758 535.656 932.758 524.665C932.758 513.673 941.672 504.747 952.664 504.747ZM952.664 562.999C973.837 562.999 990.998 545.837 990.998 524.665C990.998 503.493 973.837 486.332 952.664 486.332C931.492 486.332 914.331 503.493 914.331 524.665C914.331 545.837 931.492 562.999 952.664 562.999Z" fill="white"/>
<path d="M650.128 507.302L660.495 532.75C657.041 533.279 653.53 533.563 650.018 533.563C646.51 533.563 643.034 533.285 639.606 532.763L650.128 507.302ZM633.011 548.716C638.583 549.865 644.269 550.454 650.018 550.454C655.133 550.454 660.262 549.987 665.263 549.068C665.84 548.962 666.417 548.825 666.995 548.706L672.818 562.999H692L659.994 486.332H639.933L607.667 562.999H627.107L633.011 548.716Z" fill="white"/>
<path d="M730.333 688.773C723.203 688.773 716.135 688.211 709.161 687.153L730.557 635.608L751.639 687.126C744.618 688.197 737.474 688.773 730.333 688.773ZM710.076 593.666L646 747H684.314L696.172 718.434C707.365 720.733 718.789 721.909 730.335 721.909C740.612 721.909 750.916 720.976 760.956 719.138C762.117 718.925 763.275 718.652 764.437 718.413L776.135 747H814.667L750.372 593.666H710.076Z" fill="white"/>
<path d="M320.166 624.688C295.018 624.688 274.577 604.645 274.577 579.991C274.577 555.334 295.018 535.293 320.166 535.293C345.315 535.293 365.757 555.334 365.757 579.991C365.757 604.645 345.315 624.688 320.166 624.688ZM320.166 471C258.866 471 209 519.89 209 579.991V747H274.577V679.556L279.738 681.541C292.641 686.477 306.228 688.982 320.166 688.982C381.468 688.982 431.334 640.092 431.334 579.991C431.334 519.89 381.468 471 320.166 471Z" fill="white"/>
<path d="M209 440.333H270.333V379H209V440.333Z" fill="#00C5FF"/>
</g>
<defs>
<clipPath id="clip0_0_803">
<rect width="1200" height="1200" fill="white"/>
</clipPath>
</defs>
</svg>
