<svg width="1200" height="1200" viewBox="0 0 1200 1200" fill="none" xmlns="http://www.w3.org/2000/svg">
<g clip-path="url(#clip0_0_272)">
<path d="M600 1200C931.371 1200 1200 931.371 1200 600C1200 268.629 931.371 0 600 0C268.629 0 0 268.629 0 600C0 931.371 268.629 1200 600 1200Z" fill="#FFD900"/>
<path d="M1062 546.008C1062 465.37 996.628 400 915.991 400C835.353 400 769.983 465.37 769.983 546.008C769.983 626.646 835.353 692.016 915.991 692.016C996.628 692.016 1062 626.646 1062 546.008Z" fill="white"/>
<path d="M409.318 558.35C409.318 635.533 369.125 680.699 320.401 680.699C310.114 681.266 299.899 678.674 291.126 673.271C282.354 667.868 275.443 659.912 271.321 650.47C265.022 660.105 256.342 667.951 246.121 673.247C235.9 678.543 224.485 681.11 212.98 680.699C184.845 680.699 152.861 665.398 152.861 608.489V546.607C152.861 530.959 139 527.401 139 519.581V518.513C139.105 516.627 139.879 514.841 141.184 513.476C142.489 512.11 144.238 511.256 146.117 511.065L191.63 504.304C200.518 503.237 205.855 504.66 205.855 513.192L205.152 629.5C204.796 648.351 211.549 660.433 224.359 660.433C250.326 660.433 263.476 621.664 263.476 589.266V546.591C263.476 530.942 249.606 527.384 249.606 519.564V518.497C249.733 516.563 250.558 514.741 251.928 513.371C253.299 512 255.12 511.175 257.054 511.049L298.662 503.601C307.566 502.178 313.251 504.669 313.251 513.209L312.208 628.441C311.853 648.368 317.546 660.449 331.771 660.449C356.679 660.449 381.927 621.68 381.927 584.698C381.927 554.08 349.571 552.326 349.571 524.935C349.438 521.912 349.953 518.896 351.083 516.089C352.212 513.282 353.929 510.749 356.118 508.661C358.308 506.572 360.919 504.977 363.776 503.982C366.633 502.986 369.671 502.614 372.684 502.889C395.44 502.865 409.318 523.139 409.318 558.35Z" fill="black"/>
<path d="M439.169 671.111V669.688C439.169 660.784 452.674 657.945 452.674 642.653V562.267C452.674 546.619 439.169 542.705 439.169 534.877V533.817C439.169 530.615 442.007 528.852 446.617 526.37L491.071 504.324C499.975 500.046 505.66 505.028 505.66 511.441V642.686C505.66 657.979 520.556 660.817 520.556 669.721V671.144C520.556 674.703 517.353 677.185 512.38 677.185H446.989C442.355 677.152 439.169 674.67 439.169 671.111ZM444.134 449.865C444.134 432.082 458.359 418.933 479.345 418.933C500.331 418.933 513.836 432.09 513.836 449.865C513.836 468.013 500.331 481.179 479.345 481.179C458.359 481.179 444.151 468.013 444.151 449.874L444.134 449.865Z" fill="black"/>
<path d="M546.196 671.113V669.69C546.196 660.786 560.065 657.947 560.065 643.002V468.015C560.065 452.002 546.196 448.444 546.196 440.98V439.589C546.196 436.031 549.035 434.244 553.305 432.464L598.115 410.419C607.375 405.793 612.704 410.775 612.704 416.824V643.027C612.704 657.972 627.997 660.81 627.997 669.715V671.138C627.997 674.696 624.438 677.179 619.812 677.179H554.364C549.399 677.154 546.196 674.671 546.196 671.113Z" fill="black"/>
<path d="M652.903 671.113V669.69C652.903 660.786 666.764 657.947 666.764 643.002V468.015C666.764 452.002 652.903 448.444 652.903 440.98V439.589C652.903 436.031 655.741 434.244 660.011 432.464L704.821 410.419C714.065 405.793 719.411 410.775 719.411 416.824V643.027C719.411 657.972 734.695 660.81 734.695 669.715V671.138C734.695 674.696 731.137 677.179 726.519 677.179H661.07C656.097 677.154 652.903 674.671 652.903 671.113Z" fill="black"/>
<path d="M450.805 737.488H471.973C474.832 737.428 477.681 737.856 480.397 738.754C482.578 739.48 484.588 740.643 486.305 742.171C487.845 743.574 489.049 745.305 489.831 747.236C490.612 749.202 491.009 751.301 490.997 753.417C491.021 755.284 490.658 757.135 489.93 758.854C489.287 760.369 488.398 761.768 487.298 762.992C486.327 764.076 485.187 764.995 483.922 765.714C482.907 766.328 481.783 766.741 480.612 766.931C482.101 767.162 483.56 767.553 484.965 768.098C488.458 769.404 491.301 772.027 492.884 775.405C493.882 777.626 494.36 780.046 494.283 782.48C494.387 785.382 493.755 788.263 492.446 790.854C491.266 793.039 489.559 794.893 487.48 796.25C485.208 797.688 482.679 798.674 480.033 799.155C477.004 799.724 473.928 800.001 470.847 799.982H450.805V737.488ZM470.665 763.53C472.06 763.522 473.449 763.35 474.803 763.017C476.135 762.683 477.4 762.123 478.543 761.362C479.662 760.616 480.594 759.622 481.266 758.457C481.983 757.136 482.338 755.648 482.292 754.146C482.361 752.564 482.007 750.993 481.266 749.594C480.604 748.473 479.667 747.539 478.543 746.88C477.388 746.216 476.12 745.773 474.803 745.572C473.434 745.355 472.051 745.244 470.665 745.242H459.519V763.513L470.665 763.53ZM470.384 792.187C472.076 792.184 473.766 792.093 475.448 791.914C477.117 791.744 478.747 791.302 480.273 790.606C481.728 789.932 482.977 788.881 483.889 787.561C484.799 785.868 485.275 783.976 485.275 782.054C485.275 780.132 484.799 778.24 483.889 776.547C483.016 775.186 481.834 774.052 480.438 773.237C479.004 772.407 477.431 771.846 475.796 771.582C474.183 771.302 472.55 771.158 470.914 771.151H459.494V792.137L470.384 792.187Z" fill="black"/>
<path d="M543.05 737.482H552.228L576.681 799.96H566.66L560.197 782.582H534.544L528.081 799.96H518.622L543.05 737.482ZM557.482 774.952L547.362 747.503L537.15 774.952H557.482Z" fill="black"/>
<path d="M603.574 737.482H612.676L646.77 786.306V737.482H655.583V799.96H646.58L612.395 751.07V799.96H603.582L603.574 737.482Z" fill="black"/>
<path d="M688.522 737.482H697.426V765.866L723.551 737.482H733.87L710.642 762.961L736.675 799.96H725.918L704.559 769.342L697.443 777.021V799.968H688.539L688.522 737.482Z" fill="black"/>
</g>
<defs>
<clipPath id="clip0_0_272">
<rect width="1200" height="1200" fill="white"/>
</clipPath>
</defs>
</svg>
